<?xml version="1.0" encoding="UTF-8"?>
<svg id="Ebene_1" xmlns="http://www.w3.org/2000/svg" version="1.1" viewBox="0 0 1000 500">
  <!-- Generator: Adobe Illustrator 29.7.0, SVG Export Plug-In . SVG Version: 2.1.1 Build 138)  -->
  <defs>
    <style>
      .st0 {
        fill: #f2efeb;
      }
    </style>
  </defs>
  <path class="st0" d="M998,2v496H2V2h996M1000,0H0v500h1000V0h0Z"/>
  <g>
    <path class="st0" d="M666.4,381.3c-5.2-.9-10.2-1.9-15.1-3.4-15.7-4.9-31.8-11.4-47.8-20-4.9-2.5-9.6-5.2-14.5-8-15.1-8.9-30.2-19.4-44.4-31.1-24.4-19.7-53-31.8-83.3-35.2-17-1.9-32.4-.9-46.3,3.1h0c-17.9,4.9-33,14.8-45.6,29.6h-.3c-8.6,10.5-14.2,21-17.3,28.1-2.2,5.2-3.7,8.9-4.3,11.1l2.5,103.9c9.6-4.9,21.9-9.3,36.7-13.3,34.8-8.9,81.1-14.8,130.1-15.7,49-1.2,95.6,2.5,130.8,9.9,15.1,3.1,27.4,7.1,37.3,11.4l-1.5-68.8c-.9,0-2.2,0-3.1-.3-4.6,0-8.9-.6-13.6-1.2h-.3Z"/>
    <path class="st0" d="M631.6,178.4c0,.3,0,.6.6,1.2,18.8,42.6,19.7,91.6,12.6,92.5-7.1.9-18.8-43.8-36.4-82.6-.6-1.2-1.2-2.5-1.9-3.7-3.7-8-8-16-12.3-23.4-22.2-38.5-51.5-68.5-87.3-88.8h0s-18.5-10.8-48.7-20c-27.8-8.3-71.2-17-121.5-10.8-52.7,6.5-99.3,37.3-124.6,82.6-15.4,27.8-21.6,57.4-17.9,88.5,3.1,27.1,13.6,53.7,30.5,76.8.3.6.9,1.2,1.2,1.9,22.2,29.9,65.4,46.3,99.9,48.1,2.8-7.1,7.4-17.3,14.5-28.1-5.6-4-12-9.6-18.8-17.6-9.3-10.8-17.3-24.1-23.7-38.9-7.7-18.2-13.3-39.2-16.3-62.6-.9-7.1,47.2,70.3,59.5,84.8,5.9,6.8,11.4,11.4,15.4,14.2,9.9-9.9,21.3-17.9,33.6-23.7-9.9-13.9-19.1-78.6-12-79.3,7.1-.9,29.6,61.4,37.9,70.6,15.1-3.1,31.1-4,48.1-1.9,35.2,4,68.5,18.2,96.5,41,22.2,18.2,57.4,42.2,97.8,54.6,3.4.9,6.5,1.9,9.9,2.5,4.6.3,9.3.6,13.3,1.2,19.1,0,37.6-6.2,52.4-19.1,6.2-5.6,21.9-25.6,28.7-23.4,6.8,2.5-19.7,49-24.1,51.8,12.3.9,24.4-1.5,34.8-7.1,21.9-11.4,33-32.7,33.3-63.5,0-29.3-9.9-58.9-29-83-43.5-54.9-98.4-48.4-146.8-34.2l.6-.6h0Z"/>
  </g>
</svg>